<?xml version="1.0" encoding="UTF-8" standalone="no"?>
<svg
   width="2241.7849"
   height="538.57812"
   viewBox="0 0 172.847 41.525666"
   version="1.1"
   id="svg7"
   sodipodi:docname="kleber-2.svg"
   inkscape:version="1.3.2 (091e20e, 2023-11-25, custom)"
   xmlns:inkscape="http://www.inkscape.org/namespaces/inkscape"
   xmlns:sodipodi="http://sodipodi.sourceforge.net/DTD/sodipodi-0.dtd"
   xmlns="http://www.w3.org/2000/svg"
   xmlns:svg="http://www.w3.org/2000/svg">
  <defs
     id="defs7" />
  <sodipodi:namedview
     id="namedview7"
     pagecolor="#ffffff"
     bordercolor="#666666"
     borderopacity="1.0"
     inkscape:showpageshadow="2"
     inkscape:pageopacity="0.0"
     inkscape:pagecheckerboard="0"
     inkscape:deskcolor="#d1d1d1"
     inkscape:zoom="0.462"
     inkscape:cx="1102.8139"
     inkscape:cy="273.80952"
     inkscape:window-width="2482"
     inkscape:window-height="1411"
     inkscape:window-x="-9"
     inkscape:window-y="-9"
     inkscape:window-maximized="1"
     inkscape:current-layer="g7" />
  <g
     fill-rule="evenodd"
     clip-rule="evenodd"
     id="g7"
     transform="translate(-11.406,-75.267333)">
    <g
       id="g8">
      <path
         d="m 159.041,93.487 v 22.298 h 13.895 l 0.018,-11.088 c 0.018,-0.688 3.055,-4.025 8.051,-0.635 2.348,1.572 2.666,0.158 2.754,-1.289 l 0.494,-9.393 c -4.078,-0.547 -8.068,-0.247 -12.146,2.79 l -0.617,-2.684 h -12.449 z"
         id="path2" />
      <path
         d="m 143.539,116.793 c -9.111,0 -15.59,-4.945 -15.59,-11.9 0,-6.957 6.691,-11.882 15.783,-11.882 3.955,0 7.576,1.06 10.33,2.896 3.105,2.065 7.414,12.358 -13.084,11.106 -0.088,2.137 2.684,4.484 15.572,1.518 l -0.336,6.25 c -0.017,0.405 -7.784,2.012 -12.675,2.012 z m 0.441,-14.707 c 2.277,0 4.131,-0.512 4.131,-1.625 0,-1.113 -1.854,-2.012 -4.131,-2.012 -2.277,0 -4.148,0.898 -4.148,2.012 0,1.114 1.871,1.625 4.148,1.625 z M 95.71,88.367 v 27.242 l 15.766,0.176 c 9.939,-0.088 15.502,-6.619 15.502,-12.535 0,-12.817 -13.947,-10.823 -17.566,-10.028 l 0.105,-4.855 z m 16.845,20.25 c -2.137,0 -3.215,-2.117 -3.215,-4.695 0,-2.596 0.99,-4.715 3.215,-4.715 2.223,0 3.23,2.119 3.23,4.715 0,2.578 -1.096,4.695 -3.23,4.695 z"
         id="path3" />
      <path
         d="m 80.668,116.793 c -9.11,0 -15.607,-4.945 -15.607,-11.9 0,-6.957 6.691,-11.882 15.802,-11.882 3.937,0 7.574,1.06 10.328,2.896 3.107,2.065 7.415,12.358 -13.083,11.106 -0.106,2.137 2.666,4.484 15.572,1.518 l -0.335,6.25 c -0.017,0.405 -7.786,2.012 -12.677,2.012 z m 0.424,-14.707 c 2.277,0 4.131,-0.512 4.131,-1.625 0,-1.113 -1.854,-2.012 -4.131,-2.012 -2.278,0 -4.131,0.898 -4.131,2.012 0,1.114 1.853,1.625 4.131,1.625 z"
         id="path4" />
      <path
         d="m 48.959,88.526 v 17.056 c 0,5.348 2.171,10.203 8.845,10.203 h 8.263 c 1.342,0 2.613,-0.617 0.759,-1.748 -3.125,-1.924 -4.185,-6.072 -4.185,-9.568 V 88.543 Z"
         id="path5" />
      <path
         d="m 11.406,88.543 h 14.513 v 9.41 l 7.362,-9.41 h 13.93 c 0.477,0 0.883,0.07 0.194,0.883 l -9.41,11.175 11.864,13.561 c 1.147,1.289 -0.018,1.623 -0.636,1.623 H 33.476 l -7.557,-9.268 v 9.25 H 11.406 Z"
         id="path6" />
      <path
         d="M 118.027,88.508 110.47,85.93 c -0.742,-0.247 -0.777,-1.589 -0.07,-1.942 l 15.184,-7.591 c 1.041,-0.53 2.418,-0.583 3.494,-0.159 l 7.699,3.055 z m 45.393,-8.721 7.555,2.578 c 0.76,0.247 0.795,1.589 0.09,1.942 l -15.184,7.591 c -1.061,0.529 -2.42,0.583 -3.514,0.159 l -7.699,-3.055 z m -3.197,-1.183 -7.697,-3.054 c -1.076,-0.424 -2.453,-0.371 -3.496,0.159 l -27.736,13.718 7.697,3.054 c 1.096,0.424 2.473,0.371 3.514,-0.159 z"
         fill="#cc2229"
         id="path7" />
    </g>
  </g>
</svg>
